<svg width="83" height="69" viewBox="0 0 83 69" fill="none" xmlns="http://www.w3.org/2000/svg">
<path d="M77.6164 0H4.60799C3.38736 -2.10858e-06 2.2166 0.484306 1.35267 1.34662C0.488754 2.20894 0.00226884 3.3788 0 4.59943L0 52.4609C0.00226884 53.6815 0.488754 54.8514 1.35267 55.7137C2.2166 56.576 3.38736 57.0603 4.60799 57.0603H32.2645V63.0045H24.0506C23.8235 63.0045 23.6056 63.0947 23.445 63.2553C23.2844 63.416 23.1941 63.6338 23.1941 63.861V68.1435C23.1941 68.3707 23.2844 68.5885 23.445 68.7491C23.6056 68.9098 23.8235 69 24.0506 69H58.1738C58.4009 69 58.6188 68.9098 58.7794 68.7491C58.9401 68.5885 59.0303 68.3707 59.0303 68.1435V63.861C59.0303 63.6338 58.9401 63.416 58.7794 63.2553C58.6188 63.0947 58.4009 63.0045 58.1738 63.0045H49.9599V57.0603H77.6164C78.8371 57.0603 80.0078 56.576 80.8718 55.7137C81.7357 54.8514 82.2222 53.6815 82.2244 52.4609V4.59943C82.2222 3.3788 81.7357 2.20894 80.8718 1.34662C80.0078 0.484306 78.8371 -2.10858e-06 77.6164 0ZM1.71301 4.59943C1.71301 4.21966 1.78795 3.84362 1.93354 3.49286C2.07913 3.14211 2.29251 2.82353 2.56145 2.55539C2.83038 2.28725 3.14959 2.07481 3.50078 1.93026C3.85196 1.78571 4.22822 1.71188 4.60799 1.71301H77.6164C77.9962 1.71188 78.3725 1.78571 78.7236 1.93026C79.0748 2.07481 79.394 2.28725 79.663 2.55539C79.9319 2.82353 80.1453 3.14211 80.2909 3.49286C80.4365 3.84362 80.5114 4.21966 80.5114 4.59943V45.9258C80.5114 46.6936 80.2064 47.4299 79.6635 47.9728C79.1206 48.5158 78.3842 48.8208 77.6164 48.8208H4.60799C3.8402 48.8208 3.10385 48.5158 2.56093 47.9728C2.01802 47.4299 1.71301 46.6936 1.71301 45.9258V4.59943ZM57.3173 67.287H24.9072V64.7175H57.3173V67.287ZM48.2469 63.0045H33.9775V57.0603H48.2469V63.0045ZM77.6164 55.3473H4.60799C4.22822 55.3484 3.85196 55.2746 3.50078 55.1301C3.14959 54.9855 2.83038 54.7731 2.56145 54.5049C2.29251 54.2368 2.07913 53.9182 1.93354 53.5675C1.78795 53.2167 1.71301 52.8407 1.71301 52.4609V49.5145C2.52606 50.1918 3.54983 50.5643 4.60799 50.568H77.6164C78.6746 50.5643 79.6984 50.1918 80.5114 49.5145V52.4952C80.5024 53.2562 80.1931 53.9829 79.6509 54.5171C79.1088 55.0512 78.3775 55.3496 77.6164 55.3473Z" fill="#DDEAFF"/>
<path d="M5.13971 46.2512H77.0861C77.3132 46.2512 77.5311 46.161 77.6917 46.0003C77.8524 45.8397 77.9426 45.6218 77.9426 45.3947V5.13898C77.9426 4.91182 77.8524 4.69396 77.6917 4.53334C77.5311 4.37271 77.3132 4.28247 77.0861 4.28247H5.13971C4.91255 4.28247 4.69469 4.37271 4.53407 4.53334C4.37344 4.69396 4.2832 4.91182 4.2832 5.13898V45.3947C4.2832 45.6218 4.37344 45.8397 4.53407 46.0003C4.69469 46.161 4.91255 46.2512 5.13971 46.2512ZM5.99621 5.99548H76.2296V44.5382H5.99621V5.99548Z" fill="#DDEAFF"/>
<path d="M46.311 16.2479C43.6815 9.20745 38.5425 9.25884 35.913 16.2479C28.5042 14.9803 25.8833 19.4684 30.6969 25.2669C25.8319 31.134 28.6156 35.545 35.913 34.2859C38.551 41.3178 43.6729 41.3092 46.311 34.2859C53.5741 35.5278 56.4092 31.1511 51.5271 25.2669C56.3149 19.5369 53.754 14.9717 46.311 16.2479ZM50.3622 23.9565C49.483 23.0786 48.5412 22.2656 47.5443 21.524C47.3997 20.2916 47.1621 19.0718 46.8334 17.8753C52.3408 17.0445 53.891 19.5883 50.3622 23.9821V23.9565ZM41.112 30.8085C39.4231 30.0348 37.8114 29.1028 36.2984 28.0249C36.1272 26.1759 36.1272 24.3151 36.2984 22.4661C37.8143 21.4 39.4257 20.4767 41.112 19.7082C42.8007 20.4788 44.4124 21.408 45.9255 22.4833C46.0968 24.3322 46.0968 26.193 45.9255 28.042C44.4127 29.1201 42.801 30.0522 41.112 30.8256V30.8085ZM45.6172 30.3032C45.4887 30.9969 45.3346 31.6564 45.1633 32.2731C44.538 32.1104 43.8871 31.9134 43.2361 31.6736C44.0241 31.2796 44.8206 30.8256 45.6172 30.3203V30.3032ZM38.9879 31.6736C38.3369 31.9134 37.686 32.1104 37.0607 32.2731C36.8894 31.6564 36.7353 30.9969 36.6068 30.3032C37.3605 30.7999 38.1656 31.2624 38.9879 31.6907V31.6736ZM34.4826 26.6459C33.9516 26.1919 33.4548 25.7294 33.0009 25.2669C33.4702 24.7815 33.9648 24.3212 34.4826 23.8879C34.4398 24.8644 34.4398 25.6695 34.4826 26.6459ZM36.6068 20.2135C36.7353 19.5112 36.8894 18.8603 37.0607 18.2436C37.686 18.4063 38.3369 18.6033 38.9879 18.8346C38.1999 19.2457 37.4033 19.7082 36.6068 20.2135ZM43.2361 18.8346C43.8871 18.6033 44.538 18.4063 45.1633 18.2436C45.3346 18.8603 45.4887 19.5112 45.6172 20.2135C44.8635 19.7339 44.0584 19.2714 43.2361 18.8346ZM47.7413 23.8879C48.2592 24.3212 48.7538 24.7815 49.2231 25.2669C48.7691 25.7294 48.2724 26.1919 47.7413 26.6459C47.7842 25.6695 47.7842 24.8644 47.7413 23.8879ZM41.112 12.6849C42.3539 12.6849 43.6815 14.1409 44.6237 16.6076C43.4256 16.9287 42.252 17.3351 41.112 17.8239C39.972 17.3351 38.7984 16.9287 37.6003 16.6076C38.5425 14.1495 39.8701 12.6849 41.112 12.6849ZM35.3905 17.8924C35.0619 19.089 34.8242 20.3087 34.6796 21.5411C33.6828 22.2827 32.741 23.0957 31.8617 23.9736C28.3329 19.5883 29.8575 17.0445 35.3905 17.901V17.8924ZM31.8617 26.5431C32.7418 27.4149 33.6835 28.2221 34.6796 28.9584C34.8251 30.1907 35.0628 31.4104 35.3905 32.6071C29.8918 33.4808 28.3329 30.9455 31.8617 26.5431ZM41.112 37.8404C39.8701 37.8404 38.5425 36.3758 37.6003 33.9176C38.7998 33.5974 39.9736 33.188 41.112 32.6928C42.2504 33.188 43.4242 33.5974 44.6237 33.9176C43.6815 36.3758 42.3539 37.8404 41.112 37.8404ZM46.8334 32.6328C47.1625 31.4277 47.4001 30.1994 47.5443 28.9584C48.5413 28.2139 49.4831 27.398 50.3622 26.5174C53.8653 30.9113 52.3922 33.4893 46.8334 32.6328ZM19.2026 14.5606H13.0615C12.0211 14.5606 11.0233 14.9739 10.2876 15.7096C9.55196 16.4452 9.13867 17.443 9.13867 18.4834V32.0419C9.13867 33.083 9.55169 34.0817 10.2871 34.8187C11.0225 35.5557 12.0203 35.9709 13.0615 35.9732H19.2026C20.2438 35.9709 21.2415 35.5557 21.977 34.8187C22.7124 34.0817 23.1254 33.083 23.1254 32.0419V18.4834C23.1231 17.4437 22.7091 16.4472 21.9739 15.7121C21.2388 14.9769 20.2423 14.5629 19.2026 14.5606ZM21.4124 32.0419C21.4124 32.6287 21.1798 33.1917 20.7657 33.6074C20.3515 34.0232 19.7895 34.2579 19.2026 34.2602H13.0615C12.4746 34.2579 11.9126 34.0232 11.4984 33.6074C11.0842 33.1917 10.8517 32.6287 10.8517 32.0419V18.4834C10.8539 17.898 11.0875 17.3373 11.5014 16.9233C11.9153 16.5094 12.4761 16.2759 13.0615 16.2736H19.2026C19.788 16.2759 20.3487 16.5094 20.7627 16.9233C21.1766 17.3373 21.4101 17.898 21.4124 18.4834V32.0419ZM69.231 14.5606H63.0985C62.0573 14.5606 61.0586 14.9736 60.3216 15.709C59.5846 16.4445 59.1694 17.4422 59.1671 18.4834V32.0419C59.1694 33.0838 59.5843 34.0825 60.3211 34.8192C61.0578 35.556 62.0565 35.9709 63.0985 35.9732H69.231C70.273 35.9709 71.2716 35.556 72.0084 34.8192C72.7452 34.0825 73.1601 33.0838 73.1624 32.0419V18.4834C73.1601 17.4422 72.7449 16.4445 72.0079 15.709C71.2709 14.9736 70.2722 14.5606 69.231 14.5606ZM60.8801 18.4834C60.8824 17.8965 61.1171 17.3345 61.5329 16.9203C61.9486 16.5061 62.5116 16.2736 63.0985 16.2736H69.231C69.8179 16.2736 70.3808 16.5061 70.7966 16.9203C71.2124 17.3345 71.4471 17.8965 71.4494 18.4834V19.2714H60.8801V18.4834ZM69.231 34.2602H63.0985C62.5101 34.2602 61.9459 34.0265 61.5299 33.6105C61.1138 33.1944 60.8801 32.6302 60.8801 32.0419V20.9844H71.4494V32.0419C71.4494 32.6302 71.2157 33.1944 70.7996 33.6105C70.3836 34.0265 69.8194 34.2602 69.231 34.2602Z" fill="#DDEAFF"/>
<path d="M68.6843 22.6375H63.648C63.4209 22.6375 63.203 22.7278 63.0424 22.8884C62.8817 23.049 62.7915 23.2669 62.7915 23.494C62.7915 23.7212 62.8817 23.939 63.0424 24.0997C63.203 24.2603 63.4209 24.3505 63.648 24.3505H68.6843C68.9114 24.3505 69.1293 24.2603 69.2899 24.0997C69.4505 23.939 69.5408 23.7212 69.5408 23.494C69.5408 23.2669 69.4505 23.049 69.2899 22.8884C69.1293 22.7278 68.9114 22.6375 68.6843 22.6375ZM68.6843 26.3376H63.648C63.4209 26.3376 63.203 26.4279 63.0424 26.5885C62.8817 26.7491 62.7915 26.967 62.7915 27.1941C62.7915 27.4213 62.8817 27.6391 63.0424 27.7998C63.203 27.9604 63.4209 28.0506 63.648 28.0506H68.6843C68.9114 28.0506 69.1293 27.9604 69.2899 27.7998C69.4505 27.6391 69.5408 27.4213 69.5408 27.1941C69.5408 26.967 69.4505 26.7491 69.2899 26.5885C69.1293 26.4279 68.9114 26.3376 68.6843 26.3376ZM68.6843 30.0292H63.648C63.4209 30.0292 63.203 30.1194 63.0424 30.28C62.8817 30.4407 62.7915 30.6585 62.7915 30.8857C62.7915 31.1128 62.8817 31.3307 63.0424 31.4913C63.203 31.6519 63.4209 31.7422 63.648 31.7422H68.6843C68.9114 31.7422 69.1293 31.6519 69.2899 31.4913C69.4505 31.3307 69.5408 31.1128 69.5408 30.8857C69.5408 30.6585 69.4505 30.4407 69.2899 30.28C69.1293 30.1194 68.9114 30.0292 68.6843 30.0292ZM18.6987 18.552H13.5596C13.3325 18.552 13.1146 18.6422 12.954 18.8029C12.7934 18.9635 12.7031 19.1813 12.7031 19.4085C12.7031 19.6357 12.7934 19.8535 12.954 20.0141C13.1146 20.1748 13.3325 20.265 13.5596 20.265H18.6987C18.9258 20.265 19.1437 20.1748 19.3043 20.0141C19.4649 19.8535 19.5552 19.6357 19.5552 19.4085C19.5552 19.1813 19.4649 18.9635 19.3043 18.8029C19.1437 18.6422 18.9258 18.552 18.6987 18.552ZM18.6987 22.1065H13.5596C13.3325 22.1065 13.1146 22.1967 12.954 22.3574C12.7934 22.518 12.7031 22.7358 12.7031 22.963C12.7031 23.1902 12.7934 23.408 12.954 23.5686C13.1146 23.7293 13.3325 23.8195 13.5596 23.8195H18.6987C18.9258 23.8195 19.1437 23.7293 19.3043 23.5686C19.4649 23.408 19.5552 23.1902 19.5552 22.963C19.5552 22.7358 19.4649 22.518 19.3043 22.3574C19.1437 22.1967 18.9258 22.1065 18.6987 22.1065ZM15.7009 25.6952H13.5596C13.3325 25.6952 13.1146 25.7855 12.954 25.9461C12.7934 26.1067 12.7031 26.3246 12.7031 26.5518C12.7031 26.7789 12.7934 26.9968 12.954 27.1574C13.1146 27.318 13.3325 27.4083 13.5596 27.4083H15.7009C15.9281 27.4083 16.1459 27.318 16.3065 27.1574C16.4672 26.9968 16.5574 26.7789 16.5574 26.5518C16.5574 26.3246 16.4672 26.1067 16.3065 25.9461C16.1459 25.7855 15.9281 25.6952 15.7009 25.6952Z" fill="#DDEAFF"/>
</svg>
