<svg width="20" height="20" viewBox="0 0 20 20" fill="none" xmlns="http://www.w3.org/2000/svg">
<path d="M11.847 1.40184L11.8474 1.40213L17.6016 5.43248C17.6016 5.43252 17.6016 5.43255 17.6017 5.43258C18.03 5.73275 18.4497 6.23687 18.7631 6.83776C19.0764 7.43868 19.25 8.07236 19.25 8.59871V15.3795C19.25 17.5163 17.5171 19.25 15.3846 19.25H4.61538C2.48504 19.25 0.75 17.5085 0.75 15.3695V8.4687C0.75 7.9818 0.906724 7.38051 1.19249 6.79947C1.47806 6.21882 1.8606 5.72333 2.2498 5.41941L2.24997 5.41929L7.25289 1.51046C7.25322 1.5102 7.25355 1.50995 7.25388 1.50969C8.50253 0.541923 10.5483 0.490918 11.847 1.40184Z" stroke="#7BC9FF" stroke-width="1.5"/>
<mask id="path-2-inside-1_1414_48" fill="white">
<path d="M10.7485 15.9994C10.7485 16.4095 10.4088 16.7495 9.99925 16.7495C9.58966 16.7495 9.25 16.4095 9.25 15.9994V12.9991C9.25 12.5891 9.58966 12.249 9.99925 12.249C10.4088 12.249 10.7485 12.5891 10.7485 12.9991V15.9994Z"/>
</mask>
<path d="M10.7485 15.9994C10.7485 16.4095 10.4088 16.7495 9.99925 16.7495C9.58966 16.7495 9.25 16.4095 9.25 15.9994V12.9991C9.25 12.5891 9.58966 12.249 9.99925 12.249C10.4088 12.249 10.7485 12.5891 10.7485 12.9991V15.9994Z" fill="#D9D9D9"/>
<path d="M9.2485 15.9994C9.2485 15.5826 9.57884 15.2495 9.99925 15.2495V18.2495C11.2388 18.2495 12.2485 17.2364 12.2485 15.9994H9.2485ZM9.99925 15.2495C10.4197 15.2495 10.75 15.5826 10.75 15.9994H7.75C7.75 17.2364 8.75966 18.2495 9.99925 18.2495V15.2495ZM10.75 15.9994V12.9991H7.75V15.9994H10.75ZM10.75 12.9991C10.75 13.4159 10.4197 13.749 9.99925 13.749V10.749C8.75966 10.749 7.75 11.7622 7.75 12.9991H10.75ZM9.99925 13.749C9.57884 13.749 9.2485 13.4159 9.2485 12.9991H12.2485C12.2485 11.7622 11.2388 10.749 9.99925 10.749V13.749ZM9.2485 12.9991V15.9994H12.2485V12.9991H9.2485Z" fill="#7BC9FF" mask="url(#path-2-inside-1_1414_48)"/>
</svg>
