<svg width="511" height="510" viewBox="0 0 511 510" fill="none" xmlns="http://www.w3.org/2000/svg">
<path fill-rule="evenodd" clip-rule="evenodd" d="M284.681 57.3473V445.314L54.018 405.326V97.3345L284.681 57.3473ZM295.642 102.134H448.825C457.291 102.134 458.916 103.797 458.916 112.226V390.397C458.916 398.826 457.291 400.489 448.825 400.489H295.642V374.259H354.111V333.969H295.642V321.875H354.111V281.548H295.642V269.453H354.111V229.126H295.642V217.031H354.111V176.742H295.642V164.647H354.111V124.32H295.642V102.134ZM0.726957 509.338H509.978L510.053 0.012207H0.651367L0.726957 509.338Z" fill="#1E7145"/>
<path fill-rule="evenodd" clip-rule="evenodd" d="M191.441 179.312L170.427 227.387L154.1 182.222L127.832 183.394L153.911 249.195L124.544 313.56L150.358 315.488L171.07 269.189L190.345 318.171L220.052 319.796L187.851 248.931L218.654 177.347L191.441 179.312ZM366.206 374.259H432.725V333.969H366.206V374.259ZM366.206 321.875H432.725V281.548H366.206V321.875ZM366.206 269.453H432.725V229.126H366.206V269.453ZM366.206 164.648H432.725V124.32H366.206V164.648ZM366.206 217.032H432.725V176.742H366.206V217.032Z" fill="#1E7145"/>
</svg>
