<svg width="64" height="64" viewBox="0 0 64 64" fill="none" xmlns="http://www.w3.org/2000/svg">
<path fill-rule="evenodd" clip-rule="evenodd" d="M60 12C60 7.58 56.42 4 52 4H12C7.58 4 4 7.58 4 12V52C4 56.42 7.58 60 12 60H52C56.42 60 60 56.42 60 52V12Z" fill="#161616"/>
<path fill-rule="evenodd" clip-rule="evenodd" d="M39.01 25.0098C42.88 25.0098 46.02 28.1498 46.02 32.0198C46.02 35.8898 42.88 39.0298 39.01 39.0298C35.14 39.0298 32 35.8898 32 32.0198C32 28.1498 35.14 25.0098 39.01 25.0098Z" fill="#0CC2FF"/>
<path fill-rule="evenodd" clip-rule="evenodd" d="M46.0005 18C46.0005 14.13 42.8705 11 39.0005 11H24.9805C21.1105 11 17.9805 14.13 17.9805 18C17.9805 21.87 21.1105 25 24.9805 25H39.0005C42.8705 25 46.0005 21.87 46.0005 18Z" fill="#FF7568"/>
<path fill-rule="evenodd" clip-rule="evenodd" d="M31.9905 25.0098H24.9805C23.1205 25.0098 21.3405 25.7498 20.0305 27.0598C18.7205 28.3698 17.9805 30.1498 17.9805 32.0098C17.9805 33.8698 18.7205 35.6498 20.0305 36.9598C21.3405 38.2698 23.1205 39.0098 24.9805 39.0098H31.9905V25.0098Z" fill="#AF5BFF"/>
<path fill-rule="evenodd" clip-rule="evenodd" d="M31.9905 11H24.9805C23.1205 11 21.3405 11.74 20.0305 13.05C18.7205 14.36 17.9805 16.14 17.9805 18C17.9805 19.86 18.7205 21.64 20.0305 22.95C21.3405 24.26 23.1205 25 24.9805 25H31.9905V11Z" fill="#FF4611"/>
<path fill-rule="evenodd" clip-rule="evenodd" d="M32.0002 38.9902H24.9902C23.1302 38.9902 21.3502 39.7302 20.0402 41.0402C18.7302 42.3502 17.9902 44.1302 17.9902 45.9902C17.9902 47.8502 18.7302 49.6302 20.0402 50.9402C21.3502 52.2502 23.1302 52.9902 24.9902 52.9902C26.8502 52.9902 28.6302 52.2502 29.9402 50.9402C31.2502 49.6302 31.9902 47.8502 31.9902 45.9902V38.9902H32.0002Z" fill="#00E681"/>
</svg>
