<svg width="23" height="23" viewBox="0 0 23 23" fill="none" xmlns="http://www.w3.org/2000/svg">
<g clip-path="url(#clip0_1424_78)">
<path d="M5.8323 22.9186C4.94268 22.9087 4.06142 22.7455 3.22722 22.4363C2.61804 22.2111 2.06689 21.8526 1.61406 21.3871C1.14724 20.9351 0.788242 20.3839 0.563726 19.7741C0.254748 18.94 0.0918156 18.0588 0.0820784 17.1693C0.0137549 15.6905 0 15.247 0 11.5C0 7.75303 0.0151078 7.31107 0.081402 5.83118C0.0923208 4.94202 0.255454 4.0613 0.563726 3.22722C0.789335 2.61794 1.14783 2.06657 1.61316 1.61316C2.06543 1.14676 2.61684 0.788093 3.22654 0.563726C4.06075 0.254492 4.942 0.0913299 5.83163 0.081402C7.31084 0.0137549 7.75506 0 11.5 0C15.2449 0 15.6889 0.0151078 17.1688 0.081402C18.0582 0.0922436 18.9392 0.255378 19.7735 0.563726C20.3829 0.788389 20.9342 1.14693 21.3866 1.61293C21.8528 2.06555 22.2115 2.61695 22.4363 3.22654C22.7456 4.06073 22.9088 4.94199 22.9188 5.83163C22.9865 7.31152 23.0002 7.75461 23.0002 11.5005C23.0002 15.2463 22.9865 15.6894 22.9188 17.1693C22.9081 18.0588 22.7449 18.9398 22.4363 19.7741C22.2028 20.3792 21.8453 20.9286 21.3867 21.3871C20.9281 21.8456 20.3786 22.203 19.7735 22.4363C18.9393 22.7456 18.058 22.9088 17.1684 22.9188C15.6898 22.9865 15.2454 23.0002 11.4996 23.0002C7.75371 23.0002 7.31062 22.9871 5.83208 22.9188" fill="url(#paint0_radial_1424_78)"/>
<path d="M5.8323 22.9186C4.94268 22.9087 4.06142 22.7455 3.22722 22.4363C2.61804 22.2111 2.06689 21.8526 1.61406 21.3871C1.14724 20.9351 0.788242 20.3839 0.563726 19.7741C0.254748 18.94 0.0918156 18.0588 0.0820784 17.1693C0.0137549 15.6905 0 15.247 0 11.5C0 7.75303 0.0151078 7.31107 0.081402 5.83118C0.0923208 4.94202 0.255454 4.0613 0.563726 3.22722C0.789335 2.61794 1.14783 2.06657 1.61316 1.61316C2.06543 1.14676 2.61684 0.788093 3.22654 0.563726C4.06075 0.254492 4.942 0.0913299 5.83163 0.081402C7.31084 0.0137549 7.75506 0 11.5 0C15.2449 0 15.6889 0.0151078 17.1688 0.081402C18.0582 0.0922436 18.9392 0.255378 19.7735 0.563726C20.3829 0.788389 20.9342 1.14693 21.3866 1.61293C21.8528 2.06555 22.2115 2.61695 22.4363 3.22654C22.7456 4.06073 22.9088 4.94199 22.9188 5.83163C22.9865 7.31152 23.0002 7.75461 23.0002 11.5005C23.0002 15.2463 22.9865 15.6894 22.9188 17.1693C22.9081 18.0588 22.7449 18.9398 22.4363 19.7741C22.2028 20.3792 21.8453 20.9286 21.3867 21.3871C20.9281 21.8456 20.3786 22.203 19.7735 22.4363C18.9393 22.7456 18.058 22.9088 17.1684 22.9188C15.6898 22.9865 15.2454 23.0002 11.4996 23.0002C7.75371 23.0002 7.31062 22.9871 5.83208 22.9188" fill="url(#paint1_radial_1424_78)"/>
<path d="M8.67628 11.5489C8.67632 10.9856 8.84341 10.4349 9.15642 9.96659C9.46943 9.49823 9.91429 9.13321 10.4348 8.91768C10.9552 8.70216 11.5279 8.64582 12.0804 8.75578C12.6329 8.86574 13.1404 9.13706 13.5386 9.53543C13.9369 9.93381 14.2081 10.4414 14.318 10.9939C14.4278 11.5464 14.3713 12.1191 14.1557 12.6395C13.94 13.1599 13.5749 13.6047 13.1064 13.9176C12.638 14.2304 12.0873 14.3974 11.524 14.3973C10.7687 14.3972 10.0443 14.097 9.51024 13.5629C8.9762 13.0287 8.67622 12.3043 8.67628 11.5489ZM7.1364 11.5489C7.1364 12.4167 7.39373 13.265 7.87585 13.9865C8.35796 14.7081 9.04321 15.2705 9.84493 15.6025C10.6467 15.9346 11.5289 16.0215 12.38 15.8522C13.2311 15.6829 14.0129 15.265 14.6265 14.6514C15.2401 14.0378 15.658 13.256 15.8273 12.4049C15.9966 11.5538 15.9097 10.6716 15.5776 9.86987C15.2455 9.06814 14.6831 8.3829 13.9616 7.90078C13.2401 7.41867 12.3918 7.16134 11.524 7.16134C10.9478 7.16131 10.3772 7.27478 9.8449 7.49527C9.31256 7.71575 8.82886 8.03894 8.42143 8.44637C8.014 8.8538 7.69082 9.3375 7.47033 9.86984C7.24984 10.4022 7.13637 10.9727 7.1364 11.5489ZM15.0599 6.98749C15.0598 7.19027 15.1199 7.38853 15.2324 7.55719C15.345 7.72585 15.5051 7.85734 15.6924 7.93502C15.8797 8.01271 16.0859 8.03311 16.2848 7.99363C16.4837 7.95416 16.6664 7.85658 16.8099 7.71326C16.9533 7.56993 17.0511 7.38728 17.0907 7.18841C17.1304 6.98954 17.1102 6.78337 17.0326 6.59599C16.9551 6.40861 16.8238 6.24842 16.6552 6.13569C16.4866 6.02295 16.2884 5.96273 16.0857 5.96264C15.8138 5.96276 15.5532 6.07076 15.3609 6.26292C15.1687 6.45507 15.0606 6.71567 15.0604 6.98749M8.07241 18.5042C7.53059 18.4982 6.99383 18.3991 6.48563 18.211C6.11709 18.069 5.78237 17.8513 5.50302 17.5721C5.22368 17.2929 5.00589 16.9583 4.86369 16.5898C4.67558 16.0816 4.57642 15.5448 4.57055 15.003C4.52906 14.1024 4.52094 13.8318 4.52094 11.5501C4.52094 9.26832 4.52996 8.99841 4.57055 8.0969C4.57712 7.55514 4.67626 7.01848 4.86369 6.51012C5.00573 6.14146 5.22345 5.80666 5.50281 5.5273C5.78217 5.24794 6.11697 5.03022 6.48563 4.88817C6.9938 4.70007 7.53058 4.60091 8.07241 4.59504C8.97302 4.55355 9.24361 4.54543 11.5244 4.54543C13.8053 4.54543 14.0761 4.55423 14.9776 4.59527C15.5194 4.60184 16.056 4.70098 16.5644 4.8884C16.933 5.03046 17.2678 5.24818 17.5472 5.52754C17.8265 5.8069 18.0443 6.1417 18.1863 6.51035C18.3744 7.01852 18.4736 7.5553 18.4795 8.09713C18.5209 8.99909 18.5291 9.26832 18.5291 11.5503C18.5291 13.8322 18.5207 14.1019 18.4795 15.0034C18.4731 15.5452 18.374 16.0819 18.1863 16.5902C18.0441 16.9587 17.8263 17.2933 17.547 17.5726C17.2676 17.8518 16.9329 18.0694 16.5644 18.2115C16.0562 18.3996 15.5194 18.4988 14.9776 18.5046C14.077 18.5461 13.8064 18.5542 11.5244 18.5542C9.24248 18.5542 8.9728 18.5459 8.07241 18.5046M8.00161 3.05652C7.29263 3.07046 6.59116 3.20465 5.9271 3.45338C5.35943 3.67286 4.84389 4.00855 4.41352 4.43891C3.98316 4.86928 3.64747 5.38482 3.42799 5.95249C3.17929 6.61656 3.0451 7.31803 3.03113 8.027C2.98896 8.93798 2.97949 9.22931 2.97949 11.5498C2.97949 13.8704 2.98919 14.1615 3.03113 15.0727C3.0451 15.7816 3.17929 16.4831 3.42799 17.1472C3.64749 17.7148 3.98318 18.2304 4.41354 18.6607C4.8439 19.0911 5.35943 19.4268 5.9271 19.6463C6.59119 19.8949 7.29264 20.0291 8.00161 20.0431C8.91304 20.0846 9.20392 20.0948 11.5244 20.0948C13.845 20.0948 14.1361 20.0851 15.0473 20.0431C15.7562 20.0291 16.4577 19.895 17.1218 19.6463C17.6894 19.4268 18.205 19.0911 18.6353 18.6607C19.0657 18.2304 19.4014 17.7148 19.6209 17.1472C19.8699 16.4832 20.0041 15.7817 20.0178 15.0727C20.0592 14.161 20.0687 13.8704 20.0687 11.5498C20.0687 9.22931 20.059 8.93821 20.0178 8.027C20.0038 7.31802 19.8696 6.61655 19.6209 5.95249C19.4014 5.38493 19.0658 4.86946 18.6356 4.43911C18.2053 4.00877 17.69 3.67302 17.1225 3.45338C16.4584 3.20449 15.7569 3.07029 15.048 3.05652C14.1367 3.01481 13.8456 3.00488 11.5256 3.00488C9.2055 3.00488 8.91371 3.01458 8.00206 3.05652" fill="white"/>
</g>
<defs>
<radialGradient id="paint0_radial_1424_78" cx="0" cy="0" r="1" gradientUnits="userSpaceOnUse" gradientTransform="translate(1.48846 22.4963) scale(29.2014)">
<stop offset="0.09" stop-color="#FA8F21"/>
<stop offset="0.78" stop-color="#D82D7E"/>
</radialGradient>
<radialGradient id="paint1_radial_1424_78" cx="0" cy="0" r="1" gradientUnits="userSpaceOnUse" gradientTransform="translate(15.9313 21.7576) scale(25.6975)">
<stop offset="0.64" stop-color="#8C3AAA" stop-opacity="0"/>
<stop offset="1" stop-color="#8C3AAA"/>
</radialGradient>
<clipPath id="clip0_1424_78">
<rect width="23" height="23" fill="white"/>
</clipPath>
</defs>
</svg>
