<svg width="88" height="110" viewBox="0 0 88 110" fill="none" xmlns="http://www.w3.org/2000/svg">
<path d="M0 8C0 3.58172 3.58172 0 8 0H88V110H8C3.58172 110 0 106.418 0 102V8Z" fill="#0B3D91"/>
<path d="M49.0676 40.9468C48.5209 40.4002 47.5742 40.7735 47.5742 41.5335V46.1868C47.5742 48.1335 49.2276 49.7468 51.2409 49.7468C52.5076 49.7602 54.2676 49.7602 55.7742 49.7602C56.5342 49.7602 56.9342 48.8668 56.4009 48.3335C54.4809 46.4002 51.0409 42.9202 49.0676 40.9468Z" fill="white"/>
<path d="M55.334 51.5865H51.4807C48.3207 51.5865 45.7473 49.0132 45.7473 45.8532V41.9998C45.7473 41.2665 45.1473 40.6665 44.414 40.6665H38.7607C34.654 40.6665 31.334 43.3332 31.334 48.0932V59.9065C31.334 64.6665 34.654 67.3332 38.7607 67.3332H49.2407C53.3473 67.3332 56.6673 64.6665 56.6673 59.9065V52.9198C56.6673 52.1865 56.0673 51.5865 55.334 51.5865ZM43.334 61.6665H38.0007C37.454 61.6665 37.0007 61.2132 37.0007 60.6665C37.0007 60.1198 37.454 59.6665 38.0007 59.6665H43.334C43.8807 59.6665 44.334 60.1198 44.334 60.6665C44.334 61.2132 43.8807 61.6665 43.334 61.6665ZM46.0007 56.3332H38.0007C37.454 56.3332 37.0007 55.8798 37.0007 55.3332C37.0007 54.7865 37.454 54.3332 38.0007 54.3332H46.0007C46.5473 54.3332 47.0007 54.7865 47.0007 55.3332C47.0007 55.8798 46.5473 56.3332 46.0007 56.3332Z" fill="white"/>
</svg>
