<svg width="20" height="21" viewBox="0 0 20 21" fill="none" xmlns="http://www.w3.org/2000/svg">
<path d="M13 20H7C2 20 1 17.94 1 13.82V7.65C1 2.95 2.67 1.69 6 1.5H14C17.33 1.68 19 2.95 19 7.65V14" fill="white"/>
<path d="M13 20H7C2 20 1 17.94 1 13.82V7.65C1 2.95 2.67 1.69 6 1.5H14C17.33 1.68 19 2.95 19 7.65V14" stroke="white" stroke-width="1.5" stroke-miterlimit="10" stroke-linecap="round" stroke-linejoin="round"/>
<path d="M5 9H13" stroke="#0B3D91" stroke-width="1.5" stroke-miterlimit="10" stroke-linecap="round" stroke-linejoin="round"/>
<path d="M5 13H10" stroke="#0B3D91" stroke-width="1.5" stroke-miterlimit="10" stroke-linecap="round" stroke-linejoin="round"/>
<path d="M19 14L13 20V17C13 15 14 14 16 14H19Z" fill="white" stroke="#0B3D91" stroke-width="1.5" stroke-linecap="round" stroke-linejoin="round"/>
</svg>
