<svg width="17" height="21" viewBox="0 0 17 21" fill="none" xmlns="http://www.w3.org/2000/svg">
<path d="M0 10.5C0 10.7899 0.237869 11.025 0.53125 11.025H9.87384L7.06189 13.8038C6.96228 13.9022 6.90631 14.0357 6.90631 14.1749C6.90625 14.4649 7.14412 14.6999 7.4375 14.7C7.57842 14.7001 7.71357 14.6448 7.81305 14.5462L11.5318 10.8712C11.7391 10.6662 11.7393 10.3338 11.5318 10.1289L7.81305 6.45387C7.60721 6.25738 7.28082 6.25738 7.07492 6.45387C6.8639 6.6553 6.85807 6.98765 7.06189 7.19619L9.87384 9.975H0.53125C0.237869 9.975 0 10.2101 0 10.5ZM14.3438 0H2.65625C1.1898 0.00134578 0.00136181 1.1758 0 2.625V6.825C0 7.11493 0.237869 7.35 0.53125 7.35C0.824631 7.35 1.0625 7.11493 1.0625 6.825V2.625C1.06347 1.75553 1.77643 1.05096 2.65625 1.05H14.3438C15.2236 1.05096 15.9365 1.75553 15.9375 2.625V18.375C15.9365 19.2445 15.2236 19.949 14.3438 19.95H2.65625C1.77643 19.949 1.06347 19.2445 1.0625 18.375V14.175C1.0625 13.8851 0.824631 13.65 0.53125 13.65C0.237869 13.65 0 13.8851 0 14.175V18.375C0.00136181 19.8242 1.1898 20.9987 2.65625 21H14.3438C15.8102 20.9987 16.9986 19.8242 17 18.375V2.625C16.9986 1.1758 15.8102 0.00134578 14.3438 0Z" fill="#7BC9FF"/>
</svg>
