<svg width="79" height="85" viewBox="0 0 79 85" fill="none" xmlns="http://www.w3.org/2000/svg">
<path d="M60.9815 38.6438C60.315 38.5553 59.739 38.1387 59.4015 37.5009C55.8997 30.8835 51.1624 25.5196 45.3211 21.5578C44.7719 21.1854 44.4104 20.5676 44.3297 19.8629C44.3063 19.6594 44.31 19.4572 44.3338 19.2593H7.35917C4.83537 19.2593 2.78223 21.4922 2.78223 24.2366V60.9518C2.78223 60.035 3.46569 59.2916 4.30884 59.2916H60.361C61.204 59.2916 61.8876 60.035 61.8876 60.9518V38.5495C61.6809 38.6225 61.4638 38.6612 61.2421 38.6612C61.1556 38.6612 61.0687 38.6554 60.9815 38.6438ZM50.8193 54.2107C50.8193 56.0415 49.4496 57.531 47.7661 57.531H32.3384C32.3364 57.5312 32.3343 57.5312 32.3323 57.531H16.9031C15.2196 57.531 13.8499 56.0415 13.8499 54.2107V33.3681C13.8499 31.5373 15.2196 30.0478 16.9031 30.0478H19.5026V27.1608C19.5026 26.0639 20.1456 25.1095 21.1025 24.7856C25.165 23.4105 29.1798 25.1824 33.044 30.0478H47.7661C49.4496 30.0478 50.8193 31.5373 50.8193 33.3681V54.2107Z" fill="#8BDEC5"/>
<path d="M24.7419 69.2843V79.308H20.2024C19.3592 79.308 18.6758 80.0514 18.6758 80.9681C18.6758 81.8849 19.3592 82.6283 20.2024 82.6283H24.7419H39.9278H44.4672C45.3102 82.6283 45.9938 81.8849 45.9938 80.9681C45.9938 80.0514 45.3102 79.308 44.4672 79.308H39.9278V69.2843H24.7419Z" fill="#726B93"/>
<path d="M60.3608 59.2919H4.30884C3.46569 59.2919 2.78223 60.0353 2.78223 60.952V64.3069C2.78223 67.0514 4.83552 69.2842 7.35917 69.2842H24.742H39.9278H57.3105C59.8343 69.2842 61.8874 67.0514 61.8874 64.3069V60.952C61.8874 60.0353 61.204 59.2919 60.3608 59.2919Z" fill="#988FC4"/>
<path d="M32.1724 57.5214C31.7776 57.4747 31.4051 57.2559 31.153 56.9224C28.0806 52.8399 25.1997 51.2355 22.3469 52.0156C21.6593 52.2039 20.9443 52.0399 20.3847 51.5654C19.824 51.0903 19.5024 50.3741 19.5024 49.6009V30.0476H16.9028C15.2193 30.0476 13.8496 31.5371 13.8496 33.3679V54.2107C13.8496 56.0415 15.2193 57.531 16.9028 57.531H32.3319C32.2788 57.528 32.2247 57.528 32.1724 57.5214Z" fill="#D9D9D9"/>
<path d="M47.7656 30.0479H33.0435C33.201 30.2462 33.3584 30.4479 33.5155 30.6566C33.7387 30.9533 33.8607 31.3247 33.8607 31.708V55.8709C33.8741 56.7676 33.1598 57.5424 32.3379 57.5311H47.7656C49.4491 57.5311 50.8188 56.0416 50.8188 54.2108V33.3682C50.8188 31.5373 49.4493 30.0479 47.7656 30.0479ZM45.0528 45.4496H36.5736C35.7305 45.4496 35.047 44.7062 35.047 43.7895C35.047 42.8727 35.7305 42.1293 36.5736 42.1293H45.0528C45.8958 42.1293 46.5794 42.8727 46.5794 43.7895C46.5794 44.7062 45.8958 45.4496 45.0528 45.4496ZM46.5794 48.8089C46.5794 49.7257 45.8958 50.4691 45.0528 50.4691H36.5736C35.7305 50.4691 35.047 49.7257 35.047 48.8089C35.047 47.8922 35.7305 47.1488 36.5736 47.1488H45.0528C45.8958 47.1488 46.5794 47.892 46.5794 48.8089ZM45.0528 40.4301H36.5736C35.7305 40.4301 35.047 39.6869 35.047 38.77C35.047 37.8531 35.7305 37.1098 36.5736 37.1098H45.0528C45.8958 37.1098 46.5794 37.8531 46.5794 38.77C46.5794 39.6869 45.8958 40.4301 45.0528 40.4301Z" fill="#F5F5FC"/>
<path d="M32.8473 57.4345C33.4549 57.1984 33.8605 56.5727 33.8605 55.8709V31.708C33.8605 31.3247 33.7386 30.9532 33.5154 30.6567C33.3583 30.448 33.2009 30.2463 33.0433 30.0479C29.1792 25.1825 25.1643 23.4106 21.1018 24.7857C20.1448 25.1094 19.502 26.064 19.502 27.1609V30.0479V49.6012C19.502 50.3743 19.8236 51.0905 20.3843 51.5657C20.944 52.0401 21.6589 52.2042 22.3465 52.0159C25.1993 51.2358 28.08 52.8402 31.1526 56.9227C31.5506 57.4559 32.2513 57.6732 32.8473 57.4345Z" fill="#ECECED"/>
<path d="M45.0526 42.1293H36.5735C35.7303 42.1293 35.0469 42.8728 35.0469 43.7895C35.0469 44.7062 35.7303 45.4497 36.5735 45.4497H45.0526C45.8956 45.4497 46.5792 44.7062 46.5792 43.7895C46.5792 42.8728 45.8956 42.1293 45.0526 42.1293ZM45.0526 47.1488H36.5735C35.7303 47.1488 35.0469 47.8922 35.0469 48.809C35.0469 49.7257 35.7303 50.4691 36.5735 50.4691H45.0526C45.8956 50.4691 46.5792 49.7257 46.5792 48.809C46.5792 47.8922 45.8956 47.1488 45.0526 47.1488ZM45.0526 37.1099H36.5735C35.7303 37.1099 35.0469 37.8531 35.0469 38.77C35.0469 39.6869 35.7303 40.4302 36.5735 40.4302H45.0526C45.8956 40.4302 46.5792 39.6869 46.5792 38.77C46.5792 37.8531 45.8956 37.1099 45.0526 37.1099Z" fill="#DE8BAE"/>
<path d="M57.1352 25.609C56.4828 25.3628 55.9662 24.7844 55.7533 24.0619L51.6918 10.2675L44.9132 17.9412C44.5907 18.3066 44.3926 18.7681 44.3333 19.2595C44.3095 19.4574 44.3059 19.6596 44.3292 19.8632C44.41 20.5679 44.7715 21.1856 45.3206 21.558C51.1621 25.5196 55.8994 30.8838 59.401 37.5012C59.7386 38.139 60.3144 38.5555 60.9811 38.644C61.0683 38.6556 61.1553 38.6613 61.2415 38.6613C61.4632 38.6613 61.6803 38.6224 61.887 38.5495C62.2128 38.4345 62.5124 38.2328 62.7602 37.9524L69.5314 30.287L57.1352 25.609Z" fill="#726B93"/>
<path d="M76.2999 28.7355L70.849 10.2224C70.6362 9.49976 70.1197 8.92153 69.4671 8.67533L53.1138 2.50403C52.3278 2.20736 51.4678 2.4172 50.8699 3.05204C50.2578 3.70183 50.0404 4.65825 50.3027 5.54859L51.6921 10.2673L55.7537 24.0617C55.9665 24.7843 56.4829 25.3626 57.1355 25.6088L69.5317 30.2866L71.2386 30.9307V37.4697C71.2386 38.3866 71.9222 39.1299 72.7652 39.1299C73.6082 39.1299 74.2918 38.3866 74.2918 37.4697V31.9079C74.822 31.8853 75.3354 31.6537 75.7326 31.2319C76.3448 30.5824 76.562 29.6258 76.2999 28.7355Z" fill="#988FC4"/>
</svg>
