<svg width="27" height="21" viewBox="0 0 27 21" fill="none" xmlns="http://www.w3.org/2000/svg">
<path d="M11.4473 18.184C10.5087 19.208 9.46333 19.8054 8.31133 19.976C7.15933 20.104 6.02866 19.912 4.91933 19.4C3.85266 18.8454 2.93533 18.056 2.16733 17.032C1.39933 15.9227 0.908664 14.6427 0.695331 13.192C0.481998 11.6987 0.716664 10.0987 1.39933 8.39203C2.12466 6.64269 3.40466 5.04269 5.23933 3.59203C7.11667 2.09869 9.35666 1.07469 11.9593 0.520025C12.4287 0.434692 12.7487 0.413359 12.9193 0.456025C13.09 0.498692 13.1967 0.562692 13.2393 0.648027C13.2393 1.03203 13.1113 1.30936 12.8553 1.48002C11.7887 2.07736 10.8927 2.82403 10.1673 3.72003C9.442 4.61603 8.994 5.49069 8.82333 6.34403C8.65266 7.15469 8.84466 7.75203 9.39933 8.13603C9.57 8.26403 9.97533 8.62669 10.6153 9.22403C11.2553 9.77869 11.8527 10.5254 12.4073 11.464C12.962 12.36 13.218 13.384 13.1753 14.536C13.1753 15.688 12.5993 16.904 11.4473 18.184ZM24.8873 18.184C23.9487 19.208 22.9033 19.8054 21.7513 19.976C20.5993 20.104 19.4687 19.912 18.3593 19.4C17.2927 18.8454 16.3753 18.056 15.6073 17.032C14.8393 15.9227 14.3487 14.6427 14.1353 13.192C13.922 11.6987 14.1567 10.0987 14.8393 8.39203C15.5647 6.64269 16.8447 5.04269 18.6793 3.59203C20.5567 2.09869 22.7967 1.07469 25.3993 0.520025C25.8687 0.434692 26.1887 0.413359 26.3593 0.456025C26.53 0.498692 26.6367 0.562692 26.6793 0.648027C26.6793 1.03203 26.5513 1.30936 26.2953 1.48002C25.2287 2.07736 24.3327 2.82403 23.6073 3.72003C22.882 4.61603 22.434 5.49069 22.2633 6.34403C22.0927 7.15469 22.2847 7.75203 22.8393 8.13603C23.01 8.26403 23.4153 8.62669 24.0553 9.22403C24.6953 9.77869 25.2927 10.5254 25.8473 11.464C26.402 12.36 26.658 13.384 26.6153 14.536C26.6153 15.688 26.0393 16.904 24.8873 18.184Z" fill="#1A2E62" fill-opacity="0.28"/>
</svg>
