<svg width="20" height="20" viewBox="0 0 20 20" fill="none" xmlns="http://www.w3.org/2000/svg">
<path d="M18.032 4.81828L12.2777 0.787829C10.7093 -0.312295 8.3017 -0.252288 6.79321 0.917844L1.78821 4.82829C0.789211 5.60837 0 7.20856 0 8.4687V15.3695C0 17.9198 2.06793 20 4.61538 20H15.3846C17.9321 20 20 17.9298 20 15.3795V8.59871C20 7.24856 19.1309 5.58837 18.032 4.81828ZM10.7493 15.9995C10.7493 16.4096 10.4096 16.7496 10 16.7496C9.59041 16.7496 9.25075 16.4096 9.25075 15.9995V12.9992C9.25075 12.5892 9.59041 12.2491 10 12.2491C10.4096 12.2491 10.7493 12.5892 10.7493 12.9992V15.9995Z" fill="white"/>
</svg>
