<svg width="32" height="32" viewBox="0 0 32 32" fill="none" xmlns="http://www.w3.org/2000/svg">
<path d="M21.0676 2.94682C20.5209 2.40015 19.5742 2.77349 19.5742 3.53349V8.18682C19.5742 10.1335 21.2276 11.7468 23.2409 11.7468C24.5076 11.7602 26.2676 11.7602 27.7742 11.7602C28.5342 11.7602 28.9342 10.8668 28.4009 10.3335C26.4809 8.40015 23.0409 4.92015 21.0676 2.94682Z" fill="#0B3D91"/>
<path d="M27.334 13.5865H23.4807C20.3207 13.5865 17.7473 11.0132 17.7473 7.85317V3.99984C17.7473 3.2665 17.1473 2.6665 16.414 2.6665H10.7607C6.65398 2.6665 3.33398 5.33317 3.33398 10.0932V21.9065C3.33398 26.6665 6.65398 29.3332 10.7607 29.3332H21.2407C25.3473 29.3332 28.6673 26.6665 28.6673 21.9065V14.9198C28.6673 14.1865 28.0673 13.5865 27.334 13.5865ZM15.334 23.6665H10.0007C9.45398 23.6665 9.00065 23.2132 9.00065 22.6665C9.00065 22.1198 9.45398 21.6665 10.0007 21.6665H15.334C15.8807 21.6665 16.334 22.1198 16.334 22.6665C16.334 23.2132 15.8807 23.6665 15.334 23.6665ZM18.0007 18.3332H10.0007C9.45398 18.3332 9.00065 17.8798 9.00065 17.3332C9.00065 16.7865 9.45398 16.3332 10.0007 16.3332H18.0007C18.5473 16.3332 19.0007 16.7865 19.0007 17.3332C19.0007 17.8798 18.5473 18.3332 18.0007 18.3332Z" fill="#0B3D91"/>
</svg>
