<svg width="58" height="56" viewBox="0 0 58 56" fill="none" xmlns="http://www.w3.org/2000/svg">
<rect width="50" height="51" rx="14" fill="#DDEAFF"/>
<path d="M27.5268 18.3106C26.6066 14.6127 26.8868 10.7028 31.0697 9.41625C32.4706 8.98539 31.9953 9.16024 33.0875 8.29285C34.044 7.53321 35.3068 7.08292 36.525 7.00934C39.8226 6.81117 43.5784 9.8004 44.7644 12.6415C45.4997 14.4029 45.6033 16.5333 44.8467 18.3071C47.0497 18.3516 45.7658 21.5032 45.1623 22.5379C44.4207 23.8091 44.6128 22.9893 44.2986 24.6099C43.6208 28.107 41.0034 31.7179 37.7146 33.1862C38.2682 33.9501 39.0644 35.0161 39.3964 35.8892C39.1104 37.0874 38.2685 37.9903 37.9422 39.0188C37.7584 39.5984 38.5852 43.2108 38.6445 44.2236C40.0145 41.4027 41.3874 38.3419 42.5426 35.4465C43.0654 34.136 43.407 32.5069 45.2158 33.1601C46.2033 33.5168 47.1494 34.0273 48.1084 34.4534L51.317 35.9032C55.4431 37.802 55.8196 39.0264 56.3933 43.1372L57.6167 51.5788C57.758 52.5753 57.9578 53.6059 57.9984 54.6112C58.068 56.332 55.9515 55.9679 54.8353 55.9677L50.761 55.9666C45.7372 55.9662 40.7062 55.913 35.6834 55.9744C34.0454 55.9502 32.4049 55.9668 30.7666 55.9667L18.3552 55.968C17.7165 55.9681 15.6667 56.0559 15.1598 55.8632C13.9094 55.3875 14.3994 53.8696 14.5334 52.8847L15.8477 43.8175C16.5804 38.7159 16.6343 37.9383 21.7102 35.5918C23.4362 34.7938 25.1647 34.0004 26.9046 33.2323C28.678 32.4495 29.0405 33.5662 29.631 34.9816C30.94 38.1188 32.4165 41.1841 33.7776 44.2989C33.9776 42.7888 34.4279 40.95 34.5127 39.4915C34.5545 38.7721 33.2936 36.8701 32.9953 35.9255L32.9808 35.8787C33.1616 35.1512 34.0999 33.8061 34.6075 33.2377C31.3566 31.8331 28.505 27.6553 27.9364 24.3451C27.7042 22.9929 27.7485 23.5905 27.1727 22.5711C26.7878 21.8897 25.7307 19.2968 26.4227 18.5804C26.6979 18.2954 27.1597 18.318 27.5268 18.3106Z" fill="#0B3D91"/>
</svg>
