<svg width="78" height="83" viewBox="0 0 78 83" fill="none" xmlns="http://www.w3.org/2000/svg">
<path d="M58.4785 28.6164C58.2278 28.3184 57.9203 28.274 57.7594 28.274C57.5986 28.274 57.2909 28.3184 57.0399 28.6165C56.9984 28.6658 56.9557 28.7131 56.9127 28.76C54.9784 33.0231 51.8925 34.6447 48.9053 36.2125C48.314 36.5228 47.7028 36.8437 47.0958 37.1856C46.8742 37.3104 46.634 37.3711 46.3957 37.3711C45.9958 37.3711 45.6014 37.2002 45.3099 36.8757C44.8447 36.3576 44.7532 35.572 45.0852 34.9467C45.3837 34.3844 45.654 33.8039 45.8947 33.2083C45.4271 33.1942 44.9556 33.1742 44.4822 33.1485C43.8313 33.1129 43.2752 32.6321 43.1035 31.9563C42.9317 31.2806 43.1833 30.5626 43.7274 30.1767C44.4649 29.6532 45.1552 29.2376 45.8226 28.8357C47.6838 27.715 48.9673 26.941 49.7968 24.7218C49.6738 24.5995 49.4381 24.4281 49.0884 24.4454C47.383 24.5387 45.8555 23.5034 45.2027 21.807C44.551 20.1136 44.9488 18.2263 46.2163 16.999C46.4931 16.731 46.5345 16.4035 46.5345 16.2323C46.5345 16.061 46.4931 15.7335 46.2165 15.4656C45.1239 14.4078 44.6795 12.8598 44.9942 11.3682H12.1904C13.7913 11.3592 15.3642 12.1115 16.4335 13.3867C17.3588 14.4807 17.9228 15.9341 17.9228 17.5287V25.9955H17.9213V71.6345C17.9213 73.6531 18.5742 75.4804 19.6295 76.8056C20.6831 78.1293 22.1391 78.9473 23.7466 78.9473C26.9632 78.9473 29.5719 75.6733 29.5719 71.6345V65.1514C29.5719 64.6925 29.9185 64.3201 30.3454 64.3201H58.6979V28.9638C58.6646 28.8931 58.6316 28.8211 58.5988 28.7488C58.5586 28.7049 58.5172 28.6626 58.4785 28.6164ZM23.7237 20.0132H33.4486C34.2817 20.0132 34.957 20.739 34.957 21.6343C34.957 22.5296 34.2817 23.2554 33.4486 23.2554H23.7237C22.8906 23.2554 22.2152 22.5296 22.2152 21.6343C22.2152 20.739 22.8906 20.0132 23.7237 20.0132ZM23.7237 25.1094H38.3103C39.1434 25.1094 39.8187 25.8352 39.8187 26.7305C39.8187 27.6259 39.1433 28.3516 38.3103 28.3516H23.7237C22.8906 28.3516 22.2152 27.6259 22.2152 26.7305C22.2152 25.8352 22.8906 25.1094 23.7237 25.1094ZM23.7237 40.1065H39.3537C40.1867 40.1065 40.8621 40.8323 40.8621 41.7276C40.8621 42.6228 40.1867 43.3487 39.3537 43.3487H23.7237C22.8906 43.3487 22.2152 42.6228 22.2152 41.7276C22.2152 40.8323 22.8906 40.1065 23.7237 40.1065ZM33.4486 59.0817H23.7237C22.8906 59.0817 22.2152 58.3558 22.2152 57.4606C22.2152 56.5655 22.8906 55.8395 23.7237 55.8395H33.4486C34.2817 55.8395 34.957 56.5655 34.957 57.4606C34.957 58.3558 34.2817 59.0817 33.4486 59.0817ZM52.8969 53.8364H23.7237C22.8906 53.8364 22.2152 53.1104 22.2152 52.2153C22.2152 51.3201 22.8906 50.5942 23.7237 50.5942H52.8968C53.7297 50.5942 54.4052 51.3201 54.4052 52.2153C54.4052 53.1104 53.7299 53.8364 52.8969 53.8364ZM52.8969 48.5924H23.7237C22.8906 48.5924 22.2152 47.8665 22.2152 46.9714C22.2152 46.0762 22.8906 45.3503 23.7237 45.3503H52.8968C53.7297 45.3503 54.4052 46.0762 54.4052 46.9714C54.4052 47.8665 53.7299 48.5924 52.8969 48.5924Z" fill="#CADEFF"/>
<path d="M29.5718 65.1514V71.6345C29.5718 75.6733 26.9633 78.9472 23.7465 78.9472H64.5232C67.7398 78.9472 70.3483 75.6733 70.3483 71.6345V65.1514C70.3483 64.6925 70.0033 64.3201 69.5748 64.3201H58.6979H30.3454C29.9183 64.3199 29.5718 64.6925 29.5718 65.1514ZM17.9229 17.5285C17.9229 15.9339 17.3589 14.4806 16.4336 13.3865C15.3228 12.057 13.6676 11.3097 12.0048 11.368C8.83772 11.368 6.27246 14.1265 6.27246 17.5285V25.1639C6.27246 25.6228 6.6191 25.9952 7.04599 25.9952H17.9212H17.9228L17.9229 17.5285Z" fill="#9494DB"/>
<path d="M23.7233 23.2554H33.4482C34.2813 23.2554 34.9566 22.5296 34.9566 21.6343C34.9566 20.7389 34.2813 20.0132 33.4482 20.0132H23.7233C22.8902 20.0132 22.2148 20.7389 22.2148 21.6343C22.2148 22.5296 22.8902 23.2554 23.7233 23.2554ZM23.7233 28.3516H38.3099C39.143 28.3516 39.8184 27.6258 39.8184 26.7305C39.8184 25.8352 39.1429 25.1094 38.3099 25.1094H23.7233C22.8902 25.1094 22.2148 25.8352 22.2148 26.7305C22.2148 27.6258 22.8902 28.3516 23.7233 28.3516ZM52.8965 45.3502H23.7233C22.8902 45.3502 22.2148 46.0762 22.2148 46.9713C22.2148 47.8665 22.8902 48.5924 23.7233 48.5924H52.8964C53.7294 48.5924 54.4048 47.8665 54.4048 46.9713C54.4048 46.0762 53.7295 45.3502 52.8965 45.3502ZM23.7233 43.3487H39.3533C40.1863 43.3487 40.8617 42.6227 40.8617 41.7276C40.8617 40.8322 40.1863 40.1065 39.3533 40.1065H23.7233C22.8902 40.1065 22.2148 40.8322 22.2148 41.7276C22.2148 42.6229 22.8902 43.3487 23.7233 43.3487ZM52.8965 50.5941H23.7233C22.8902 50.5941 22.2148 51.3201 22.2148 52.2152C22.2148 53.1104 22.8902 53.8363 23.7233 53.8363H52.8964C53.7294 53.8363 54.4048 53.1104 54.4048 52.2152C54.4048 51.3201 53.7295 50.5941 52.8965 50.5941ZM33.4482 55.8395H23.7233C22.8902 55.8395 22.2148 56.5654 22.2148 57.4606C22.2148 58.3558 22.8902 59.0817 23.7233 59.0817H33.4482C34.2813 59.0817 34.9566 58.3558 34.9566 57.4606C34.9566 56.5654 34.2813 55.8395 33.4482 55.8395Z" fill="#DE8BAE"/>
<path d="M71.7907 30.1766C71.0532 29.6532 70.363 29.2375 69.6955 28.8357C67.8342 27.715 66.5507 26.9409 65.7213 24.7218C65.7121 24.731 65.702 24.7406 65.6942 24.7492C65.5815 24.8705 65.3951 25.1332 65.4141 25.5312C65.5011 27.3605 64.5392 28.9963 62.9635 29.6989C61.4384 30.3786 59.745 30.0027 58.5985 28.7489C58.6312 28.8212 58.6641 28.893 58.6976 28.9639C60.6382 33.0737 63.6708 34.6675 66.608 36.2095C67.2007 36.5206 67.8134 36.8424 68.4221 37.1856C68.6436 37.3106 68.8839 37.3712 69.1224 37.3712C69.5222 37.3712 69.9166 37.2005 70.208 36.876C70.6734 36.358 70.765 35.5723 70.433 34.9468C70.1344 34.3845 69.8641 33.804 69.6234 33.2084C70.091 33.1943 70.5625 33.1743 71.0359 33.1486C71.6868 33.1131 72.2429 32.6323 72.4146 31.9564C72.5863 31.2804 72.3346 30.5626 71.7907 30.1766ZM54.1026 30.034C53.5853 30.034 53.0607 29.9244 52.5545 29.6987C50.9787 28.9961 50.0168 27.3601 50.1038 25.531C50.1228 25.1331 49.9366 24.8703 49.8237 24.749C49.8157 24.7404 49.8056 24.7309 49.7964 24.7218C48.9669 26.9409 47.6834 27.715 45.8223 28.8357C45.1548 29.2375 44.4645 29.6532 43.7271 30.1766C43.1831 30.5626 42.9315 31.2806 43.1032 31.9563C43.2748 32.6319 43.8308 33.1129 44.4819 33.1484C44.9554 33.1742 45.4269 33.1941 45.8944 33.2082C45.6535 33.8037 45.3832 34.3843 45.0848 34.9467C44.7528 35.5719 44.8444 36.3577 45.3096 36.8756C45.6011 37.2002 45.9955 37.371 46.3953 37.371C46.6337 37.371 46.8738 37.3104 47.0954 37.1856C47.7024 36.8437 48.3136 36.5227 48.9049 36.2124C51.8921 34.6447 54.9781 33.0231 56.9123 28.7599C56.1474 29.5917 55.1404 30.034 54.1026 30.034Z" fill="#FF5384"/>
<path d="M46.2164 15.4654C46.4931 15.7333 46.5344 16.0608 46.5344 16.2321C46.5344 16.4035 46.4931 16.731 46.2163 16.9988C44.9489 18.2261 44.551 20.1134 45.2026 21.8068C45.8555 23.5032 47.3829 24.5385 49.0884 24.4453C49.438 24.4279 49.6738 24.5991 49.7967 24.7217C49.8059 24.7309 49.816 24.7405 49.824 24.7489C49.9369 24.8701 50.1231 25.1331 50.1041 25.5309C50.0171 27.3601 50.979 28.996 52.5548 29.6986C53.0608 29.9242 53.5856 30.0338 54.1029 30.0338C55.1407 30.0338 56.1477 29.5916 56.9128 28.7598C56.9558 28.7129 56.9985 28.6656 57.04 28.6163C57.2908 28.3184 57.5984 28.2738 57.7593 28.2738H57.7595C57.9203 28.2738 58.2277 28.3182 58.4786 28.6162C58.5173 28.6624 58.5587 28.7047 58.5989 28.7486C59.7455 30.0024 61.4389 30.3783 62.9639 29.6986C64.5396 28.996 65.5016 27.36 65.4145 25.5309C65.3955 25.1329 65.582 24.8701 65.6946 24.7489C65.7026 24.7403 65.7126 24.7307 65.7218 24.7215C65.8447 24.5988 66.0799 24.4266 66.4302 24.4451C68.1379 24.5386 69.6632 23.5029 70.316 21.8066C70.9675 20.1132 70.5698 18.2259 69.3021 16.9986C69.0254 16.7306 68.9841 16.4032 68.9841 16.232C68.9841 16.0606 69.0254 15.7332 69.3021 15.4652C70.5696 14.2379 70.9675 12.3508 70.316 10.6572C69.663 8.96073 68.1353 7.92404 66.4302 8.01871C66.0559 8.03881 65.8084 7.83731 65.6946 7.71508C65.5818 7.59382 65.3954 7.33088 65.4144 6.9329C65.5014 5.10382 64.5395 3.46782 62.9638 2.76523C61.3855 2.06152 59.6247 2.48608 58.4786 3.84764C58.2279 4.14559 57.9204 4.19001 57.7595 4.19001C57.5985 4.19001 57.2911 4.14559 57.0401 3.84764C55.894 2.48608 54.1335 2.06135 52.5549 2.76523C50.9792 3.46782 50.0173 5.10382 50.1043 6.9329C50.1233 7.33088 49.937 7.59366 49.8242 7.71492C49.7104 7.83715 49.4634 8.03703 49.0885 8.01855C47.3825 7.92404 45.8556 8.96057 45.2028 10.657C45.1127 10.891 45.0447 11.1286 44.9943 11.3677C44.6795 12.8596 45.1239 14.4074 46.2164 15.4654ZM57.7592 9.20908C61.4336 9.20908 64.4232 12.3595 64.4232 16.232C64.4232 20.1045 61.4337 23.255 57.7592 23.255C54.0846 23.255 51.0952 20.1045 51.0952 16.232C51.0952 12.3595 54.0848 9.20908 57.7592 9.20908Z" fill="#FCE677"/>
<path d="M57.7597 23.2551C61.4401 23.2551 64.4237 20.1108 64.4237 16.232C64.4237 12.3533 61.4401 9.20898 57.7597 9.20898C54.0793 9.20898 51.0957 12.3533 51.0957 16.232C51.0957 20.1108 54.0793 23.2551 57.7597 23.2551Z" fill="#FCF3C3"/>
</svg>
