<svg width="23" height="23" viewBox="0 0 23 23" fill="none" xmlns="http://www.w3.org/2000/svg">
<g clip-path="url(#clip0_1424_69)">
<path fill-rule="evenodd" clip-rule="evenodd" d="M12.5781 1.4375H15.4531C15.4697 1.4375 15.4862 1.43858 15.502 1.44073C15.6759 1.45511 15.8161 1.59419 15.829 1.771C16.0209 3.76697 17.8674 6.1967 19.8019 6.44359C19.8905 6.45259 19.9726 6.49414 20.0323 6.5602C20.092 6.62627 20.125 6.71214 20.125 6.80117C20.125 7.47392 20.125 8.99228 20.1236 9.69414C20.1234 9.74253 20.1135 9.79038 20.0944 9.83484C20.0753 9.87929 20.0474 9.91942 20.0124 9.95282C19.9774 9.98622 19.936 10.0122 19.8906 10.0292C19.8453 10.0462 19.7971 10.0538 19.7487 10.0517C18.3084 9.96762 16.9593 9.407 15.8125 8.53552V14.7344C15.8125 18.1064 13.0751 20.8438 9.70312 20.8438C6.33111 20.8438 3.59375 18.1064 3.59375 14.7344C3.59375 11.3624 6.33111 8.625 9.70312 8.625C9.79844 8.625 9.88985 8.66286 9.95724 8.73026C10.0246 8.79765 10.0625 8.88906 10.0625 8.98438V11.8594C10.0624 11.9546 10.0245 12.0459 9.95711 12.1133C9.88973 12.1806 9.79837 12.2184 9.70312 12.2184C8.31486 12.2184 7.1875 13.3461 7.1875 14.7344C7.1875 16.1226 8.31486 17.25 9.70312 17.25C11.0914 17.25 12.2188 16.1226 12.2188 14.7344V1.79688C12.2188 1.70156 12.2566 1.61015 12.324 1.54276C12.3914 1.47536 12.4828 1.4375 12.5781 1.4375Z" fill="#AAE1F9"/>
<path fill-rule="evenodd" clip-rule="evenodd" d="M13.2969 2.15625H16.1719C16.1884 2.15625 16.2049 2.15733 16.2208 2.15948C16.3947 2.17386 16.5348 2.31294 16.5478 2.48975C16.7397 4.48572 18.5862 6.91545 20.5207 7.16234C20.6093 7.17134 20.6913 7.21289 20.751 7.27895C20.8107 7.34502 20.8438 7.43089 20.8438 7.51992C20.8437 8.19267 20.8437 9.71103 20.8423 10.4129C20.8422 10.4613 20.8322 10.5091 20.8131 10.5536C20.794 10.598 20.7661 10.6382 20.7311 10.6716C20.6961 10.705 20.6547 10.7309 20.6094 10.7479C20.5641 10.7649 20.5158 10.7726 20.4675 10.7705C19.0271 10.6864 17.678 10.1257 16.5312 9.25427V15.4531C16.5312 18.8251 13.7939 21.5625 10.4219 21.5625C7.04986 21.5625 4.3125 18.8251 4.3125 15.4531C4.3125 12.0811 7.04986 9.34375 10.4219 9.34375C10.5172 9.34375 10.6086 9.38161 10.676 9.44901C10.7434 9.5164 10.7812 9.60781 10.7812 9.70312V12.5781C10.7812 12.6734 10.7432 12.7647 10.6759 12.832C10.6085 12.8993 10.5171 12.9371 10.4219 12.9371C9.03361 12.9371 7.90625 14.0649 7.90625 15.4531C7.90625 16.8414 9.03361 17.9688 10.4219 17.9688C11.8101 17.9688 12.9375 16.8414 12.9375 15.4531V2.51562C12.9375 2.42031 12.9754 2.3289 13.0428 2.26151C13.1102 2.19411 13.2016 2.15625 13.2969 2.15625Z" fill="#DD636E"/>
<path fill-rule="evenodd" clip-rule="evenodd" d="M15.8851 2.15625C16.123 3.38172 16.9215 4.70386 17.9414 5.55522C18.5592 6.28655 19.325 6.85903 20.125 7.08184C20.125 7.83186 20.1246 9.07781 20.1236 9.69414C20.1234 9.74253 20.1135 9.79038 20.0944 9.83484C20.0753 9.87929 20.0474 9.91942 20.0124 9.95282C19.9774 9.98622 19.936 10.0122 19.8907 10.0292C19.8453 10.0462 19.7971 10.0538 19.7487 10.0517C18.3084 9.96762 16.9593 9.407 15.8125 8.53552V14.7344C15.8125 18.1064 13.0751 20.8438 9.70313 20.8438C8.25821 20.8456 6.8598 20.3331 5.75827 19.398C4.82316 18.2965 4.31065 16.898 4.31251 15.4531C4.31251 12.2019 6.8576 9.54069 10.0625 9.35417V11.8594C10.0624 11.9546 10.0245 12.0459 9.95712 12.1133C9.88973 12.1806 9.79838 12.2184 9.70313 12.2184C8.31486 12.2184 7.1875 13.3461 7.1875 14.7344C7.18738 15.1511 7.29087 15.5613 7.48867 15.9281C7.68646 16.2949 7.97235 16.6068 8.32061 16.8356C8.54948 17.1839 8.86134 17.4698 9.22813 17.6676C9.59493 17.8654 10.0052 17.9689 10.4219 17.9688C11.8101 17.9688 12.9375 16.8414 12.9375 15.4531V2.51562C12.9375 2.42031 12.9754 2.3289 13.0428 2.26151C13.1102 2.19411 13.2016 2.15625 13.2969 2.15625H15.8851Z" fill="#F9F6F9"/>
</g>
<defs>
<clipPath id="clip0_1424_69">
<rect width="23" height="23" fill="white"/>
</clipPath>
</defs>
</svg>
