<svg width="93" height="92" viewBox="0 0 93 92" fill="none" xmlns="http://www.w3.org/2000/svg">
<path opacity="0.3" d="M18.7975 55.3512C18.7975 55.3512 20.5921 60.7351 27.2985 62.152L23.8981 55.3512H18.7975ZM71.6927 41.7306C71.6927 41.7306 67.48 29.9614 56.032 35.0998C56.032 35.0998 58.7145 28.0534 67.2344 32.4929C67.2344 32.4929 74.3375 36.1388 71.6927 41.7306ZM68.9535 62.152C68.9535 62.152 83.3108 61.6419 80.855 57.5425C80.855 57.5425 85.5022 59.0727 85.9556 62.152H68.9535ZM0.945312 62.152C0.945312 62.152 53.5194 62.7376 91.0562 65.5524V62.152H0.945312Z" fill="white"/>
<path opacity="0.3" d="M16.2461 0.944519C16.2461 0.944519 79.1537 1.70017 79.1537 41.7494V0.944519H16.2461Z" fill="white"/>
<path d="M0.945312 40.0493H28.1486V55.3511H0.945312V40.0493Z" fill="#81B9FC"/>
<path d="M41.7492 33.2485V55.3512H28.1476V40.0493H9.44531V33.2485H41.7492ZM55.6909 4.34503C61.1316 4.34503 65.5521 8.76557 65.5521 14.2062H55.6909V4.34503Z" fill="#5C77FF"/>
<path d="M61.9441 17.3232C61.9441 22.7638 57.5235 27.1844 52.0829 27.1844C46.6422 27.1844 42.2217 22.7638 42.2217 17.3232C42.2217 11.8825 46.6422 7.46198 52.0829 7.46198V17.3232H61.9441Z" fill="#5C77FF"/>
<path d="M92 65.5524V62.152C92 61.623 91.5844 61.2074 91.0555 61.2074H86.5782C85.8982 59.8472 83.8768 56.768 79.0596 56.2012L87.2017 42.6563C87.3528 42.6752 87.5039 42.694 87.655 42.694C89.1097 42.694 90.2998 41.5039 90.2998 40.0493C90.2998 38.5947 89.1097 37.4045 87.655 37.4045C87.145 37.4045 86.6538 37.5556 86.2382 37.8201L80.0986 33.1918V0.944559C80.0986 0.415606 79.683 0 79.154 0H16.2464C15.7175 0 15.3018 0.415606 15.3018 0.944559V27.8267H0.944559C0.415606 27.8267 0 28.2423 0 28.7713V55.2945C0 55.8234 0.415606 56.239 0.944559 56.239H17.3043L14.8107 61.2074H0.944559C0.415606 61.2074 0 61.623 0 62.152V65.5524C0 66.0813 0.415606 66.4969 0.944559 66.4969H17.7766L0.188912 90.4887C-0.0188912 90.7721 -0.0566734 91.1499 0.113347 91.4711C0.283368 91.7922 0.604518 91.9811 0.96345 91.9811H4.36386C4.66612 91.9811 4.94949 91.83 5.11951 91.6033L23.5384 66.478H68.4805L86.8994 91.6222C87.0694 91.8678 87.3528 92 87.655 92H91.0555C91.4144 92 91.7355 91.7922 91.9056 91.4899C92.0756 91.1877 92.0378 90.791 91.83 90.5076L74.2234 66.5158H91.0555C91.5844 66.4969 92 66.0813 92 65.5524ZM84.3869 61.2074H70.5207C71.4464 59.885 73.4678 57.9959 77.4538 57.9959C81.4398 57.9959 83.4612 59.885 84.3869 61.2074ZM88.4107 40.0493C88.4107 40.4649 88.0706 40.8049 87.655 40.8049C87.5228 40.8049 87.3906 40.7671 87.2772 40.6916C87.1639 40.616 86.8994 40.4082 86.8994 40.0493C86.8994 39.8982 86.9561 39.7281 87.0505 39.577C87.1828 39.3881 87.4095 39.2936 87.655 39.2936C88.0706 39.2936 88.4107 39.6337 88.4107 40.0493ZM1.88912 29.7158H40.8049V54.3499H1.88912V29.7158ZM41.7495 56.239C42.2784 56.239 42.694 55.8234 42.694 55.2945V42.694H63.2288C63.7577 42.694 64.1733 42.2784 64.1733 41.7495C64.1733 41.2205 63.7577 40.8049 63.2288 40.8049H42.694V28.7713C42.694 28.2423 42.2784 27.8267 41.7495 27.8267H17.191V1.88912H78.2094V31.7749L76.5848 30.5659C76.6604 30.3203 76.6982 30.0936 76.6982 29.848C76.6982 28.3934 75.508 27.2033 74.0534 27.2033C72.6554 27.2033 71.522 28.299 71.4086 29.6591L67.2526 31.4538C67.1203 31.3971 67.007 31.3405 66.8747 31.2838C60.055 28.4123 56.1446 32.7195 55.9745 32.9084C55.899 32.984 55.8612 33.0784 55.8045 33.1729L55.1433 34.7409C54.9355 35.2131 55.1622 35.7799 55.6534 35.9688L71.3142 42.5996C71.4275 42.6563 71.5598 42.6752 71.6731 42.6752C71.7865 42.6752 71.9187 42.6563 72.032 42.5996C72.2587 42.5051 72.4476 42.3162 72.5421 42.0895L73.2033 40.5216C73.2411 40.4271 73.26 40.3326 73.2789 40.2193C73.2977 40.0115 73.5622 35.6665 69.2928 32.6062L71.9565 31.4538C72.4476 32.0772 73.2033 32.4739 74.0345 32.4739C74.5446 32.4739 75.0357 32.3228 75.4513 32.0583L78.1906 34.1175V40.8049H74.4123C73.8834 40.8049 73.4678 41.2205 73.4678 41.7495C73.4678 42.2784 73.8834 42.694 74.4123 42.694H79.1351C79.6641 42.694 80.0797 42.2784 80.0797 41.7495V35.5532L85.1047 39.3125C85.0292 39.5581 84.9914 39.7848 84.9914 40.0304C84.9914 40.6349 85.1992 41.2016 85.5581 41.655L76.8871 56.0879C71.3142 56.2957 69.0283 59.715 68.3105 61.1696H27.8834L25.4086 56.2012H41.7495V56.239ZM73.3355 30.0559C73.3355 30.037 73.3355 30.0181 73.3166 30.0181C73.2978 29.9614 73.2977 29.9236 73.2977 29.8669C73.2977 29.4513 73.6378 29.1113 74.0534 29.1113C74.469 29.1113 74.809 29.4513 74.809 29.8669C74.809 30.0181 74.7524 30.1881 74.6579 30.3392C74.5257 30.5281 74.299 30.6226 74.0534 30.6226C73.7134 30.6037 73.4111 30.377 73.3355 30.0559ZM66.7425 33.2862C66.7803 33.324 66.837 33.3429 66.8936 33.3618C71.2386 35.5721 71.4464 39.1992 71.4275 39.9548L71.2008 40.4838L57.278 34.5897L57.5047 34.0608C58.0715 33.5129 61.1129 30.8871 66.1569 33.0218C66.3458 33.1162 66.5536 33.1918 66.7425 33.2862ZM19.3823 56.2957H23.3117L25.7676 61.2074H16.9265L19.3823 56.2957ZM3.87269 90.1109H2.81478L20.138 66.4969H21.1959L3.87269 90.1109ZM89.1852 90.1109H88.1273L70.8041 66.4969H71.862L89.1852 90.1109ZM90.1109 64.6078H1.88912V63.0965H90.1109V64.6078Z" fill="#164B72"/>
<path d="M22.1028 44.0164C22.6244 44.0164 23.0473 43.5935 23.0473 43.0719C23.0473 42.5502 22.6244 42.1273 22.1028 42.1273C21.5811 42.1273 21.1582 42.5502 21.1582 43.0719C21.1582 43.5935 21.5811 44.0164 22.1028 44.0164Z" fill="#164B72"/>
<path d="M25.3147 44.0164C25.8363 44.0164 26.2592 43.5935 26.2592 43.0719C26.2592 42.5502 25.8363 42.1273 25.3147 42.1273C24.793 42.1273 24.3701 42.5502 24.3701 43.0719C24.3701 43.5935 24.793 44.0164 25.3147 44.0164Z" fill="#164B72"/>
<path d="M18.7024 42.1273C18.4568 42.1273 18.2112 42.2407 18.0412 42.4107C17.8523 42.5807 17.7578 42.8263 17.7578 43.0719C17.7578 43.3175 17.8712 43.563 18.0412 43.7331C18.2112 43.922 18.4568 44.0164 18.7024 44.0164C18.948 44.0164 19.1935 43.922 19.3636 43.7331C19.5525 43.563 19.6469 43.3175 19.6469 43.0719C19.6469 42.8263 19.5336 42.5807 19.3636 42.4107C19.1935 42.2218 18.948 42.1273 18.7024 42.1273Z" fill="#164B72"/>
<path d="M38.5393 37.5935C39.061 37.5935 39.4838 37.1706 39.4838 36.6489C39.4838 36.1272 39.061 35.7043 38.5393 35.7043C38.0176 35.7043 37.5947 36.1272 37.5947 36.6489C37.5947 37.1706 38.0176 37.5935 38.5393 37.5935Z" fill="#164B72"/>
<path d="M35.3274 37.5935C35.849 37.5935 36.2719 37.1706 36.2719 36.6489C36.2719 36.1272 35.849 35.7043 35.3274 35.7043C34.8057 35.7043 34.3828 36.1272 34.3828 36.6489C34.3828 37.1706 34.8057 37.5935 35.3274 37.5935Z" fill="#164B72"/>
<path d="M31.9245 35.7043C31.679 35.7043 31.4334 35.8176 31.2633 35.9876C31.0744 36.1577 30.98 36.4032 30.98 36.6488C30.98 36.8944 31.0933 37.14 31.2633 37.31C31.4334 37.4989 31.679 37.5934 31.9245 37.5934C32.1701 37.5934 32.4157 37.4989 32.5857 37.31C32.7746 37.14 32.8691 36.8944 32.8691 36.6488C32.8691 36.4032 32.7558 36.1577 32.5857 35.9876C32.4157 35.7987 32.1701 35.7043 31.9245 35.7043ZM28.1463 35.7043H12.8445C12.3155 35.7043 11.8999 36.1199 11.8999 36.6488C11.8999 37.1778 12.3155 37.5934 12.8445 37.5934H28.1463C28.6753 37.5934 29.0909 37.1778 29.0909 36.6488C29.0909 36.1199 28.6753 35.7043 28.1463 35.7043ZM15.867 42.1273H4.15452C3.62557 42.1273 3.20996 42.5429 3.20996 43.0718C3.20996 43.6008 3.62557 44.0164 4.15452 44.0164H15.867C16.396 44.0164 16.8116 43.6008 16.8116 43.0718C16.8116 42.5429 16.396 42.1273 15.867 42.1273ZM67.251 22.2915C67.78 22.2915 68.1956 21.8759 68.1956 21.347C68.1956 20.818 67.78 20.4024 67.251 20.4024H55.3496C54.8206 20.4024 54.405 20.818 54.405 21.347C54.405 21.8759 54.8206 22.2915 55.3496 22.2915H67.251ZM39.0087 7.08415C38.8387 6.91413 38.5931 6.80078 38.3475 6.80078H26.4461C25.9171 6.80078 25.5015 7.21639 25.5015 7.74534C25.5015 8.27429 25.9171 8.6899 26.4461 8.6899H37.9508L45.3184 16.0575C45.5073 16.2464 45.7529 16.3408 45.9796 16.3408C46.2252 16.3408 46.4707 16.2464 46.6408 16.0575C47.0186 15.6796 47.0186 15.094 46.6408 14.7162L39.0087 7.08415Z" fill="#164B72"/>
<path d="M70.6533 24.7474C72.5313 24.7474 74.0538 23.225 74.0538 21.347C74.0538 19.469 72.5313 17.9466 70.6533 17.9466C68.7753 17.9466 67.2529 19.469 67.2529 21.347C67.2529 23.225 68.7753 24.7474 70.6533 24.7474Z" fill="white"/>
<path d="M23.0469 11.1459C24.9249 11.1459 26.4473 9.62344 26.4473 7.74544C26.4473 5.86745 24.9249 4.34503 23.0469 4.34503C21.1689 4.34503 19.6465 5.86745 19.6465 7.74544C19.6465 9.62344 21.1689 11.1459 23.0469 11.1459Z" fill="white"/>
</svg>
