<svg width="21" height="18" viewBox="0 0 21 18" fill="none" xmlns="http://www.w3.org/2000/svg">
<path d="M6.21234 14.7092L5.84102 14.5766L5.52131 14.8074C5.09726 15.1134 4.38406 15.5465 3.53442 15.9111C2.72918 16.2555 1.81647 16.5362 0.92484 16.5889C0.952711 16.5566 0.982992 16.5207 1.01529 16.4812C1.19628 16.2632 1.43228 15.949 1.67129 15.5614L1.6713 15.5614L1.6731 15.5584C2.1031 14.8538 2.53335 13.8953 2.62013 12.7908L2.64524 12.4712L2.43159 12.2322C1.36112 11.0347 0.751163 9.59301 0.751163 8.05433C0.751163 4.16533 4.74818 0.75 10.044 0.75C15.3399 0.75 19.3369 4.16533 19.3369 8.05433C19.3369 11.9433 15.3399 15.3587 10.044 15.3587C8.6736 15.3587 7.37805 15.1253 6.21234 14.7092Z" stroke="#7BC9FF" stroke-width="1.5"/>
<path d="M6.39062 9.13026H11.4124M6.39062 6.84766H14.1515" stroke="#7BC9FF" stroke-width="1.5" stroke-linecap="round" stroke-linejoin="round"/>
</svg>
