<svg width="21" height="18" viewBox="0 0 21 18" fill="none" xmlns="http://www.w3.org/2000/svg">
<path d="M20.0869 8.05433C20.0869 12.5036 15.5912 16.1087 10.044 16.1087C8.58861 16.1087 7.20771 15.8608 5.9602 15.4155C5.49336 15.7524 4.7323 16.2132 3.83001 16.6004C2.88849 17.0032 1.75474 17.3478 0.628843 17.3478C0.373848 17.3478 0.146314 17.1968 0.0482394 16.9644C-0.0498356 16.7321 0.00508636 16.4688 0.181621 16.2907L0.19339 16.279C0.205159 16.2674 0.220851 16.2519 0.244389 16.2248C0.287542 16.1784 0.354233 16.1048 0.436616 16.0041C0.597459 15.8105 0.813224 15.524 1.03291 15.1677C1.42521 14.5249 1.7979 13.6807 1.87243 12.732C0.695534 11.4155 0.00116337 9.80073 0.00116337 8.05433C0.00116337 3.60509 4.49692 0 10.044 0C15.5912 0 20.0869 3.60509 20.0869 8.05433Z" fill="white"/>
<path d="M6.39062 9.13026H11.4124M6.39062 6.84766H14.1515" stroke="#0B3D91" stroke-width="1.5" stroke-linecap="round" stroke-linejoin="round"/>
</svg>
