<svg width="256" height="256" viewBox="0 0 256 256" fill="none" xmlns="http://www.w3.org/2000/svg">
<path d="M183.133 15.627V15.628C180.912 14.149 177.81 14.095 175.502 16.185L84.1264 99.013L40.9755 66.339C39.3035 65.073 36.9725 65.151 35.3885 66.527L13.0755 85.913C11.0685 87.657 11.0355 90.762 13.0055 92.548L52.1315 128.013L13.0055 163.478C11.0355 165.264 11.0685 168.369 13.0755 170.113L35.3885 189.499C36.9725 190.875 39.3025 190.953 40.9755 189.687L84.3445 157.211L175.502 239.841C177.81 241.931 180.923 241.877 183.133 240.398V240.402L244.449 205.823V47.878L183.133 15.627ZM183.133 173.977L122.425 128.013L183.133 82.038V173.977Z" fill="#3193F3"/>
<path d="M28.4095 163.476L67.5385 128.013L28.4095 92.55C26.4375 90.763 26.4685 87.651 28.4815 85.916L46.3415 70.398L40.9805 66.341C39.3065 65.078 36.9755 65.15 35.3935 66.526L13.0765 85.916C11.0635 87.652 11.0325 90.763 13.0045 92.55L52.1335 128.013L13.0045 163.476C11.0325 165.263 11.0635 168.375 13.0765 170.11L35.3935 189.5C36.9755 190.876 39.3065 190.948 40.9805 189.685L46.3725 185.649L28.4815 170.11C26.4685 168.374 26.4375 165.263 28.4095 163.476Z" fill="#35B1FC"/>
<path d="M183.129 15.627C180.911 14.148 177.809 14.097 175.498 16.181L173.033 18.42L229.046 47.875V205.819L172.889 237.482L175.498 239.844C177.809 241.929 180.921 241.877 183.129 240.398L244.452 205.819V47.875L183.129 15.627Z" fill="#307FED"/>
</svg>
